<?xml version="1.0" encoding="UTF-8"?>
<svg id="Layer_2" data-name="Layer 2" xmlns="http://www.w3.org/2000/svg" viewBox="0 0 756.24 97.41">
  <defs>
    <style>
      .cls-1 {
        fill: #fff;
      }

      .cls-2 {
        fill: #59be3c;
        fill-rule: evenodd;
      }
    </style>
  </defs>
  <g id="Layer_1-2" data-name="Layer 1">
    <g>
      <path class="cls-2" d="M277.37,0l-30.05,97.41h-59.55c3.11-9.88,6.22-19.77,9.32-29.65l-22.78-.36-9.25,30.01h-59.52s11.71-37.41,11.71-37.41l-1.22,.09c-8.02,14.7-18.96,27.31-33.23,37.32H18.19s-5.46-29.25-5.46-29.25c0,0,30.13-3.97,44.48-24.27l-48.37,3.43L0,0H55.08s6.3,33.72,6.3,33.72l1.22-.1L72.51,0h47.98s5.39,28.85,5.39,28.85l1.22-.09L136.17,0h58.94s-9.17,29.74-9.17,29.74c7.66,.15,15.31,.31,22.97,.46C212.07,20.13,215.24,10.07,218.4,0h58.97Z"/>
      <g>
        <path class="cls-1" d="M332.71,7.73h8.98V42.19h-8.98v-12.65h-25.41v12.65h-8.98V7.73h8.98v13.99h25.41V7.73Z"/>
        <path class="cls-1" d="M370.33,7.73l17.81,34.46h-10.14l-3.6-7.16h-17.81l-3.6,7.16h-10.14l17.81-34.46h9.67Zm-9.92,19.7h10.18l-5.09-10.14-5.09,10.14Z"/>
        <path class="cls-1" d="M418.53,27.36l.22-.76h9.05l-.22,1.24c-.7,4.14-2.65,7.57-5.85,10.27-3.2,2.7-6.89,4.05-11.09,4.05h-8.18c-3.1,0-5.98-.77-8.63-2.31s-4.75-3.64-6.29-6.29c-1.54-2.65-2.31-5.53-2.31-8.63s.77-5.97,2.31-8.61c1.54-2.64,3.63-4.73,6.29-6.27,2.65-1.54,5.53-2.31,8.63-2.31h8.18c4.19,0,7.89,1.35,11.09,4.05,3.2,2.7,5.15,6.12,5.85,10.27l.22,1.2h-9.05l-.22-.73c-.53-1.72-1.53-3.13-3-4.22s-3.1-1.64-4.89-1.64h-8.18c-2.28,0-4.22,.81-5.83,2.42-1.61,1.61-2.42,3.56-2.42,5.83s.81,4.23,2.42,5.85c1.61,1.62,3.56,2.44,5.83,2.44h8.18c1.79,0,3.42-.55,4.89-1.64,1.47-1.09,2.47-2.5,3-4.22Z"/>
        <path class="cls-1" d="M457.6,25.54l18.57,16.65h-13.45l-14.14-12.65h-9.49v12.65h-8.98V7.73h8.98v13.99h9.56l14.5-13.99h12.87l-18.43,17.81Z"/>
        <path class="cls-1" d="M513.54,15.51h-27.26v5.53h24.54v7.81h-24.54v5.49h27.26v7.85h-36.24V7.69h36.24v7.81Z"/>
        <path class="cls-1" d="M548.11,32.84l9.38,9.34h-10.76l-8.29-8.25h-13.01v8.25h-8.98V7.69l26.42,.04c3.61,0,6.7,1.28,9.27,3.83,2.57,2.56,3.85,5.64,3.85,9.25,0,2.62-.72,5.02-2.16,7.2-1.44,2.18-3.35,3.79-5.73,4.83Zm-5.23-6.72c1.45,0,2.7-.52,3.74-1.56,1.04-1.04,1.56-2.29,1.56-3.74s-.52-2.7-1.56-3.73c-1.04-1.03-2.29-1.54-3.74-1.54h-17.45v10.58h17.45Z"/>
        <path class="cls-1" d="M576.79,20.78c2.76,0,4.98,.03,6.67,.09,1.68,.06,3.36,.19,5.02,.38,1.66,.19,2.99,.49,4,.87,1.01,.39,1.93,.9,2.76,1.54,.84,.64,1.54,1.45,2.13,2.42,.85,1.62,1.23,3.25,1.15,4.89-.09,1.64-.52,3.1-1.29,4.38-1.48,2.42-3.62,4.17-6.42,5.23-2.8,1.07-6.65,1.6-11.54,1.6-4.48,0-8.19-.45-11.12-1.35-2.93-.9-5.32-2.3-7.16-4.22-.8-.85-1.42-1.78-1.87-2.8-.45-1.02-.7-1.78-.76-2.27-.06-.5-.08-.91-.05-1.25l.04-.98h8.32l.29,.36s.08,.12,.16,.22c.09,.1,.15,.17,.2,.22,.36,.46,.71,.82,1.04,1.07s.9,.57,1.73,.94c.82,.38,2.01,.65,3.54,.84s3.42,.27,5.65,.27c1.55,0,2.94-.07,4.18-.2,1.24-.13,2.22-.3,2.94-.49s1.34-.42,1.84-.67c.5-.25,.84-.49,1.02-.71,.18-.22,.27-.42,.27-.62,0-.46-.43-.84-1.29-1.13-.86-.29-2.14-.49-3.84-.6-1.7-.11-3.1-.18-4.22-.2s-2.6-.04-4.47-.04c-1.41,0-2.51,0-3.33-.02-.81-.01-1.89-.07-3.23-.16-1.35-.1-2.43-.25-3.25-.45-.82-.21-1.75-.52-2.78-.94-1.03-.42-1.84-.93-2.44-1.53-.59-.59-1.11-1.35-1.56-2.27-.45-.92-.72-1.97-.82-3.16-.22-2.76,.59-5.14,2.44-7.12,3.2-3.47,9.23-5.2,18.1-5.2,4.29,0,7.75,.42,10.4,1.25,2.64,.84,4.88,2.25,6.72,4.24,.73,.78,1.3,1.64,1.73,2.58,.42,.95,.67,1.64,.75,2.09,.07,.45,.11,.81,.11,1.07l.04,1.05h-8.51l-.33-.47c-.27-.41-.53-.75-.8-1-.27-.25-.76-.55-1.49-.87-.73-.33-1.81-.58-3.25-.75-1.44-.17-3.23-.25-5.36-.25-1.79,0-3.4,.06-4.83,.18-1.43,.12-2.56,.28-3.38,.47-.82,.19-1.5,.41-2.04,.64-.53,.23-.89,.44-1.07,.62-.18,.18-.27,.36-.27,.53,0,.15,.06,.28,.18,.4,.85,.85,3.61,1.27,8.29,1.27h1.09Z"/>
        <path class="cls-1" d="M659.7,7.73h8.98V42.19h-8.98v-12.65h-25.41v12.65h-8.98V7.73h8.98v13.99h25.41V7.73Z"/>
        <path class="cls-1" d="M704.15,7.73h9.01V24.67c0,5.99-1.69,10.4-5.07,13.25-3.38,2.85-8.6,4.27-15.65,4.27s-12.26-1.42-15.63-4.27c-3.37-2.85-5.05-7.26-5.05-13.25V7.73h8.98V24.67c0,.99,.07,1.87,.22,2.62,.15,.75,.46,1.51,.95,2.29,.48,.78,1.14,1.42,1.96,1.93,.82,.51,1.96,.92,3.42,1.24,1.45,.31,3.17,.47,5.16,.47s3.71-.16,5.16-.47c1.45-.32,2.59-.73,3.42-1.24,.82-.51,1.48-1.15,1.96-1.93,.48-.77,.8-1.54,.95-2.29,.15-.75,.22-1.62,.22-2.62V7.73Z"/>
        <path class="cls-1" d="M752.68,23.79c2.37,2.11,3.56,4.73,3.56,7.85,0,2.91-1.04,5.39-3.13,7.45-2.08,2.06-4.59,3.09-7.52,3.09h-29.26V7.73h27.37c2.91,0,5.39,1.03,7.45,3.09,2.06,2.06,3.09,4.54,3.09,7.45,0,1.96-.52,3.8-1.56,5.52Zm-27.41-8.25v5.45h18.43c.75,0,1.39-.27,1.93-.8,.53-.53,.8-1.18,.8-1.93s-.27-1.39-.8-1.93c-.53-.53-1.18-.8-1.93-.8h-18.43Zm20.32,18.83c.77,0,1.44-.27,2-.8s.84-1.18,.84-1.93-.28-1.39-.84-1.93c-.56-.53-1.22-.8-2-.8h-20.28v5.45h20.28Z"/>
        <path class="cls-1" d="M315.81,68.27c2.76,0,4.99,.03,6.67,.09,1.68,.06,3.36,.19,5.02,.38,1.66,.19,2.99,.48,4,.87,1.01,.39,1.93,.9,2.76,1.54,.84,.64,1.54,1.45,2.13,2.42,.85,1.62,1.23,3.25,1.15,4.89-.09,1.64-.52,3.1-1.29,4.38-1.48,2.42-3.62,4.17-6.42,5.23-2.8,1.07-6.65,1.6-11.54,1.6-4.48,0-8.19-.45-11.12-1.35-2.93-.9-5.32-2.3-7.16-4.22-.8-.85-1.42-1.78-1.87-2.8-.45-1.02-.7-1.78-.76-2.27-.06-.5-.08-.91-.05-1.25l.04-.98h8.32l.29,.36s.08,.12,.16,.22,.15,.17,.2,.22c.36,.46,.71,.82,1.04,1.07s.9,.57,1.73,.94c.82,.38,2.01,.65,3.54,.84s3.42,.27,5.65,.27c1.55,0,2.94-.07,4.18-.2,1.24-.13,2.22-.3,2.94-.49s1.34-.42,1.84-.67c.5-.25,.84-.49,1.02-.71,.18-.22,.27-.42,.27-.62,0-.46-.43-.84-1.29-1.13-.86-.29-2.14-.49-3.84-.6s-3.1-.18-4.22-.2c-1.11-.02-2.61-.04-4.47-.04-1.4,0-2.51,0-3.33-.02-.81-.01-1.89-.07-3.23-.16s-2.43-.25-3.25-.45c-.82-.21-1.75-.52-2.78-.95s-1.84-.93-2.43-1.53c-.59-.59-1.12-1.35-1.56-2.27-.45-.92-.72-1.98-.82-3.16-.22-2.76,.59-5.14,2.43-7.12,3.2-3.47,9.23-5.2,18.1-5.2,4.29,0,7.75,.42,10.4,1.25,2.64,.84,4.88,2.25,6.72,4.23,.73,.78,1.3,1.64,1.73,2.58,.42,.95,.67,1.64,.75,2.09,.07,.45,.11,.81,.11,1.07l.04,1.05h-8.51l-.33-.47c-.27-.41-.53-.74-.8-1-.27-.25-.76-.55-1.49-.87-.73-.33-1.81-.58-3.25-.74s-3.23-.25-5.36-.25c-1.79,0-3.41,.06-4.83,.18-1.43,.12-2.56,.28-3.38,.47-.82,.19-1.5,.41-2.04,.64s-.89,.44-1.07,.62c-.18,.18-.27,.36-.27,.53,0,.15,.06,.28,.18,.4,.85,.85,3.61,1.27,8.29,1.27h1.09Z"/>
        <path class="cls-1" d="M376.55,63h-27.26v5.52h24.54v7.81h-24.54v5.49h27.26v7.85h-36.24V55.19h36.24v7.81Z"/>
        <path class="cls-1" d="M410.57,74.85l.22-.76h9.05l-.22,1.24c-.7,4.14-2.65,7.57-5.85,10.27-3.2,2.7-6.89,4.05-11.09,4.05h-8.18c-3.1,0-5.98-.77-8.63-2.31s-4.75-3.64-6.29-6.29c-1.54-2.65-2.31-5.53-2.31-8.63s.77-5.97,2.31-8.62c1.54-2.64,3.63-4.73,6.29-6.27s5.53-2.31,8.63-2.31h8.18c4.19,0,7.89,1.35,11.09,4.05,3.2,2.7,5.15,6.12,5.85,10.27l.22,1.2h-9.05l-.22-.73c-.53-1.72-1.53-3.13-3-4.22s-3.1-1.64-4.89-1.64h-8.18c-2.28,0-4.22,.81-5.83,2.42-1.61,1.61-2.42,3.56-2.42,5.83s.81,4.23,2.42,5.85c1.61,1.62,3.56,2.44,5.83,2.44h8.18c1.79,0,3.42-.55,4.89-1.64,1.47-1.09,2.47-2.5,3-4.22Z"/>
        <path class="cls-1" d="M453.97,55.22h9.01v16.94c0,5.98-1.69,10.4-5.07,13.25-3.38,2.85-8.6,4.27-15.65,4.27s-12.26-1.42-15.63-4.27c-3.37-2.85-5.05-7.26-5.05-13.25v-16.94h8.98v16.94c0,.99,.07,1.87,.22,2.62,.15,.75,.46,1.51,.95,2.29,.48,.77,1.14,1.42,1.96,1.93,.82,.51,1.96,.92,3.42,1.24,1.45,.31,3.17,.47,5.16,.47s3.71-.16,5.16-.47c1.45-.32,2.59-.73,3.42-1.24,.82-.51,1.48-1.15,1.96-1.93,.48-.78,.8-1.54,.95-2.29,.15-.75,.22-1.62,.22-2.62v-16.94Z"/>
        <path class="cls-1" d="M497.8,80.34l9.38,9.34h-10.76l-8.29-8.25h-13.01v8.25h-8.98V55.19l26.42,.04c3.61,0,6.7,1.28,9.27,3.84,2.57,2.56,3.85,5.64,3.85,9.25,0,2.62-.72,5.02-2.16,7.2-1.44,2.18-3.35,3.79-5.73,4.83Zm-5.23-6.72c1.45,0,2.7-.52,3.74-1.56s1.56-2.29,1.56-3.74-.52-2.7-1.56-3.73c-1.04-1.03-2.29-1.54-3.74-1.54h-17.45v10.58h17.45Z"/>
        <path class="cls-1" d="M517.98,89.68h-8.98V55.22h8.98v34.46Z"/>
        <path class="cls-1" d="M519.65,55.19h41.76v7.85h-16.39v26.64h-8.98v-26.64h-16.39v-7.85Z"/>
        <path class="cls-1" d="M599.51,55.22h11.89l-21.01,24.35v10.14h-8.94v-10.03l-21.12-24.46h11.92l13.63,15.81,13.63-15.81Z"/>
      </g>
    </g>
  </g>
</svg>